<svg width="64" height="51" viewBox="0 0 64 51" fill="none" xmlns="http://www.w3.org/2000/svg">
<g clip-path="url(#clip0_2141_386)">
<path d="M63.8504 26.8126C63.8557 26.0137 63.4571 25.2914 62.7827 24.88L62.3756 24.6316C63.0655 22.6785 64.4701 15.9869 55.4983 7.8347C50.6864 3.46154 43.3661 0.828936 34.888 0.421753C27.2206 0.050423 19.2746 1.51013 13.0761 4.4176C5.33415 8.04896 0.329389 14.0047 0.015735 19.9606C-0.182228 23.7225 1.39548 29.3087 10.0356 34.5653C15.0703 37.6281 20.9998 38.7763 26.631 38.7763C30.358 38.7763 33.9522 38.2735 37.0681 37.4899L37.0664 38.1386L33.2854 40.3308C32.185 40.977 31.3255 42.4905 31.3298 43.7769C31.3315 44.505 31.6169 45.089 32.1105 45.3775C32.3282 45.5046 32.5732 45.5679 32.8338 45.5679C33.1681 45.5679 33.5254 45.4637 33.8759 45.2571L37.1872 43.3373C37.2781 43.601 37.4135 43.8451 37.5892 44.0603C36.8959 44.8175 36.422 45.8964 36.4246 46.8508C36.4262 47.5789 36.7116 48.162 37.2053 48.4514C37.4229 48.5794 37.668 48.6418 37.9286 48.6418C38.2627 48.6418 38.6193 48.5376 38.9706 48.3319L41.7198 46.7381L47.5627 50.2987C47.9312 50.524 48.3383 50.6367 48.7462 50.6367C49.1336 50.6367 49.5217 50.5351 49.8783 50.3303C49.9811 50.2713 50.0763 50.2039 50.167 50.1322L62.1057 42.1499C63.1872 41.4951 63.8548 40.2975 63.8513 39.017L63.8136 27.1977C63.8342 27.0713 63.8496 26.9441 63.8504 26.8126ZM50.0797 33.8978C49.8877 33.7032 49.6743 33.5281 49.4369 33.384L41.3076 28.4312L51.8151 22.1142C52.6454 21.62 53.6747 21.6251 54.4999 22.1296L61.7843 26.5736C61.888 26.6368 61.9094 26.7307 61.9086 26.799C61.9086 26.8672 61.8854 26.9603 61.7834 27.0209L50.0797 33.8978ZM11.0322 32.8692C4.85082 29.1089 1.71255 24.6811 1.95508 20.0655C2.22932 14.843 6.80302 9.53514 13.8894 6.21109C25.6463 0.697478 44.6507 0.625771 54.2051 9.30722C61.816 16.2233 61.2066 21.6977 60.6702 23.5902L55.4992 20.4352C54.6337 19.9067 53.6396 19.6993 52.6694 19.8027C50.8878 14.3249 44.5076 8.54578 33.9925 7.68787C30.3135 7.38739 26.3816 7.72202 22.3067 8.68151C19.1161 9.4327 17.3738 10.3222 15.4413 11.6035L16.5024 13.2578C18.2943 12.0696 19.8197 11.2945 22.7445 10.6056C26.6241 9.6922 30.3554 9.37295 33.8373 9.6572C43.4612 10.4417 49.2493 15.5695 50.8227 20.4147L38.4007 27.8822C38.3527 27.9053 38.3048 27.9258 38.2576 27.9523C37.5274 28.3714 37.0904 29.1312 37.0878 29.9839L37.0732 35.4498C29.6073 37.4336 19.0638 37.7546 11.0322 32.8692ZM33.2949 44.2284C33.0455 44.3745 32.8141 44.4206 32.6907 44.3489C32.5698 44.278 32.4945 44.0569 32.4936 43.7718C32.491 42.9002 33.12 41.7931 33.8639 41.3568L40.9931 37.2244L41 39.7614L33.2949 44.2284ZM38.3896 47.3041C38.1403 47.4501 37.908 47.4962 37.7854 47.4245C37.6646 47.3536 37.5892 47.1325 37.5883 46.8483C37.5857 45.9767 38.2148 44.8696 38.9587 44.4333L46.0879 40.3001L46.0947 42.837L38.3896 47.3041ZM43.6558 45.6156L46.9679 43.6958C47.1497 43.5899 47.2627 43.3927 47.2619 43.1794L47.2516 39.28C47.2508 39.0691 47.1402 38.8745 46.9611 38.7687C46.782 38.6628 46.5609 38.662 46.3801 38.7669L39.2243 42.9156L39.1703 42.8831C39.0624 42.8174 38.9955 42.6971 38.9955 42.5656V42.2898L41.8732 40.6218C42.0549 40.516 42.168 40.3188 42.1671 40.1055L42.1569 36.206C42.156 35.9952 42.0454 35.8006 41.8663 35.6947C41.6872 35.5888 41.4662 35.588 41.2853 35.693L39.0109 37.011L39.0298 29.9916C39.0298 29.8063 39.1446 29.7133 39.2123 29.674C39.28 29.6348 39.4171 29.5836 39.5748 29.6792L48.4377 35.0783C48.8713 35.3431 49.1396 35.8271 49.1387 36.3409L49.1052 48.2918C49.1052 48.4155 49.0538 48.495 48.9999 48.5478L48.8756 48.6306C48.8011 48.6614 48.688 48.6819 48.5602 48.6042L43.6558 45.6156ZM61.1004 40.458L51.0515 47.176L51.0815 36.346C51.0823 36.1044 51.0515 35.868 51.0035 35.6367L61.8769 29.2481L61.9077 39.0221C61.9094 39.6112 61.6 40.1609 61.1004 40.458Z" fill="#AAAAAA"/>
</g>
<defs>
<clipPath id="clip0_2141_386">
<rect width="64" height="51" fill="white"/>
</clipPath>
</defs>
</svg>
